<svg width="48" height="48" viewBox="0 0 48 48" fill="none" xmlns="http://www.w3.org/2000/svg">
<path d="M0.188161 20.028L19.745 0.237069L47.8118 27.9719L28.255 47.7629L0.188161 20.028Z" fill="white" stroke="#484848" stroke-width="0.1"/>
<circle cx="7.68178" cy="19.4512" r="2.46812" transform="rotate(-45.3688 7.68178 19.4512)" fill="#3CA8D6"/>
<rect x="13.4541" y="12.4329" width="9.87248" height="0.822707" transform="rotate(-45.3688 13.4541 12.4329)" fill="#484848"/>
<rect x="12.3882" y="27.5652" width="21.3904" height="0.822707" transform="rotate(-45.3688 12.3882 27.5652)" fill="#484848"/>
<rect x="13.5591" y="28.7212" width="21.3904" height="0.822707" transform="rotate(-45.3688 13.5591 28.7212)" fill="#484848"/>
<rect x="14.73" y="29.8773" width="21.3904" height="0.822707" transform="rotate(-45.3688 14.73 29.8773)" fill="#484848"/>
<rect x="15.9009" y="31.0332" width="21.3904" height="0.822707" transform="rotate(-45.3688 15.9009 31.0332)" fill="#484848"/>
<rect x="17.072" y="32.1892" width="21.3904" height="0.822707" transform="rotate(-45.3688 17.072 32.1892)" fill="#484848"/>
<rect x="15.7808" y="12.4178" width="8.22707" height="0.822707" transform="rotate(-45.3688 15.7808 12.4178)" fill="#484848"/>
<rect x="37.999" y="29.7275" width="4.93624" height="0.822707" transform="rotate(-45.3688 37.999 29.7275)" fill="#484848"/>
<rect x="26.4395" y="41.437" width="4.93624" height="0.822707" transform="rotate(-45.3688 26.4395 41.437)" fill="#484848"/>
<rect x="15.7961" y="14.7449" width="9.87248" height="0.822707" transform="rotate(-45.3688 15.7961 14.7449)" fill="#484848"/>
</svg>
