<svg width="50" height="50" viewBox="0 0 50 50" fill="none" xmlns="http://www.w3.org/2000/svg">
<path d="M15.7752 28.1818H16.6559V32.0085C16.6559 32.4157 16.5603 32.7765 16.369 33.0909C16.1777 33.4034 15.9087 33.6496 15.5621 33.8295C15.2156 34.0076 14.8093 34.0966 14.3434 34.0966C13.8794 34.0966 13.4741 34.0076 13.1275 33.8295C12.7809 33.6496 12.512 33.4034 12.3207 33.0909C12.1294 32.7765 12.0337 32.4157 12.0337 32.0085V28.1818H12.9116V31.9375C12.9116 32.2008 12.9693 32.4347 13.0849 32.6392C13.2023 32.8438 13.368 33.0047 13.582 33.1222C13.796 33.2377 14.0498 33.2955 14.3434 33.2955C14.6388 33.2955 14.8936 33.2377 15.1076 33.1222C15.3235 33.0047 15.4883 32.8438 15.6019 32.6392C15.7174 32.4347 15.7752 32.2008 15.7752 31.9375V28.1818ZM17.864 35.6364V29.6364H18.6935V30.3438H18.7646C18.8138 30.2528 18.8848 30.1477 18.9776 30.0284C19.0704 29.9091 19.1992 29.8049 19.364 29.7159C19.5288 29.625 19.7466 29.5795 20.0174 29.5795C20.3697 29.5795 20.6841 29.6686 20.9606 29.8466C21.2371 30.0246 21.454 30.2812 21.6112 30.6165C21.7702 30.9517 21.8498 31.3551 21.8498 31.8267C21.8498 32.2983 21.7712 32.7027 21.614 33.0398C21.4568 33.375 21.2409 33.6335 20.9663 33.8153C20.6916 33.9953 20.3782 34.0852 20.0259 34.0852C19.7608 34.0852 19.5439 34.0407 19.3754 33.9517C19.2087 33.8627 19.078 33.7585 18.9833 33.6392C18.8886 33.5199 18.8157 33.4138 18.7646 33.321H18.7134V35.6364H17.864ZM18.6964 31.8182C18.6964 32.125 18.7409 32.3939 18.8299 32.625C18.9189 32.8561 19.0477 33.0369 19.2163 33.1676C19.3848 33.2964 19.5913 33.3608 19.8356 33.3608C20.0894 33.3608 20.3015 33.2936 20.4719 33.1591C20.6424 33.0227 20.7712 32.8381 20.8583 32.6051C20.9473 32.3722 20.9918 32.1098 20.9918 31.8182C20.9918 31.5303 20.9483 31.2718 20.8612 31.0426C20.7759 30.8134 20.6471 30.6326 20.4748 30.5C20.3043 30.3674 20.0913 30.3011 19.8356 30.3011C19.5894 30.3011 19.381 30.3646 19.2106 30.4915C19.042 30.6184 18.9142 30.7955 18.8271 31.0227C18.7399 31.25 18.6964 31.5152 18.6964 31.8182ZM23.6509 28.1818V34H22.8015V28.1818H23.6509ZM26.6317 34.0881C26.2227 34.0881 25.8656 33.9943 25.5607 33.8068C25.2558 33.6193 25.0191 33.357 24.8505 33.0199C24.6819 32.6828 24.5977 32.2888 24.5977 31.8381C24.5977 31.3854 24.6819 30.9896 24.8505 30.6506C25.0191 30.3116 25.2558 30.0483 25.5607 29.8608C25.8656 29.6733 26.2227 29.5795 26.6317 29.5795C27.0408 29.5795 27.3978 29.6733 27.7028 29.8608C28.0077 30.0483 28.2444 30.3116 28.413 30.6506C28.5816 30.9896 28.6658 31.3854 28.6658 31.8381C28.6658 32.2888 28.5816 32.6828 28.413 33.0199C28.2444 33.357 28.0077 33.6193 27.7028 33.8068C27.3978 33.9943 27.0408 34.0881 26.6317 34.0881ZM26.6346 33.375C26.8997 33.375 27.1194 33.3049 27.2937 33.1648C27.4679 33.0246 27.5967 32.8381 27.68 32.6051C27.7653 32.3722 27.8079 32.1155 27.8079 31.8352C27.8079 31.5568 27.7653 31.3011 27.68 31.0682C27.5967 30.8333 27.4679 30.6449 27.2937 30.5028C27.1194 30.3608 26.8997 30.2898 26.6346 30.2898C26.3675 30.2898 26.146 30.3608 25.9698 30.5028C25.7956 30.6449 25.6658 30.8333 25.5806 31.0682C25.4973 31.3011 25.4556 31.5568 25.4556 31.8352C25.4556 32.1155 25.4973 32.3722 25.5806 32.6051C25.6658 32.8381 25.7956 33.0246 25.9698 33.1648C26.146 33.3049 26.3675 33.375 26.6346 33.375ZM30.8839 34.0966C30.6074 34.0966 30.3574 34.0455 30.1339 33.9432C29.9104 33.839 29.7333 33.6884 29.6026 33.4915C29.4738 33.2945 29.4094 33.053 29.4094 32.767C29.4094 32.5208 29.4568 32.3182 29.5515 32.1591C29.6462 32 29.774 31.8741 29.935 31.7812C30.096 31.6884 30.2759 31.6184 30.4748 31.571C30.6737 31.5237 30.8763 31.4877 31.0827 31.4631C31.3441 31.4328 31.5562 31.4081 31.7191 31.3892C31.882 31.3684 32.0004 31.3352 32.0742 31.2898C32.1481 31.2443 32.185 31.1705 32.185 31.0682V31.0483C32.185 30.8002 32.1149 30.608 31.9748 30.4716C31.8365 30.3352 31.6301 30.267 31.3555 30.267C31.0695 30.267 30.8441 30.3305 30.6793 30.4574C30.5165 30.5824 30.4038 30.7216 30.3413 30.875L29.543 30.6932C29.6377 30.428 29.7759 30.214 29.9577 30.0511C30.1415 29.8864 30.3526 29.767 30.5913 29.6932C30.8299 29.6174 31.0808 29.5795 31.3441 29.5795C31.5183 29.5795 31.703 29.6004 31.8981 29.642C32.0951 29.6818 32.2788 29.7557 32.4492 29.8636C32.6216 29.9716 32.7627 30.1259 32.8725 30.3267C32.9824 30.5256 33.0373 30.7841 33.0373 31.1023V34H32.2077V33.4034H32.1737C32.1187 33.5133 32.0363 33.6212 31.9265 33.7273C31.8166 33.8333 31.6755 33.9214 31.5032 33.9915C31.3308 34.0616 31.1244 34.0966 30.8839 34.0966ZM31.0685 33.4148C31.3034 33.4148 31.5041 33.3684 31.6708 33.2756C31.8394 33.1828 31.9672 33.0616 32.0543 32.9119C32.1433 32.7604 32.1879 32.5985 32.1879 32.4261V31.8636C32.1576 31.8939 32.0988 31.9223 32.0117 31.9489C31.9265 31.9735 31.829 31.9953 31.7191 32.0142C31.6093 32.0312 31.5022 32.0473 31.3981 32.0625C31.2939 32.0758 31.2068 32.0871 31.1367 32.0966C30.9719 32.1174 30.8214 32.1525 30.685 32.2017C30.5505 32.2509 30.4426 32.322 30.3612 32.4148C30.2816 32.5057 30.2418 32.6269 30.2418 32.7784C30.2418 32.9886 30.3195 33.1477 30.4748 33.2557C30.6301 33.3617 30.828 33.4148 31.0685 33.4148ZM35.8022 34.0852C35.4499 34.0852 35.1355 33.9953 34.859 33.8153C34.5844 33.6335 34.3685 33.375 34.2113 33.0398C34.056 32.7027 33.9783 32.2983 33.9783 31.8267C33.9783 31.3551 34.0569 30.9517 34.2141 30.6165C34.3732 30.2812 34.591 30.0246 34.8675 29.8466C35.1441 29.6686 35.4575 29.5795 35.8079 29.5795C36.0787 29.5795 36.2965 29.625 36.4613 29.7159C36.628 29.8049 36.7567 29.9091 36.8477 30.0284C36.9405 30.1477 37.0124 30.2528 37.0636 30.3438H37.1147V28.1818H37.9641V34H37.1346V33.321H37.0636C37.0124 33.4138 36.9386 33.5199 36.842 33.6392C36.7473 33.7585 36.6166 33.8627 36.4499 33.9517C36.2833 34.0407 36.0674 34.0852 35.8022 34.0852ZM35.9897 33.3608C36.234 33.3608 36.4405 33.2964 36.609 33.1676C36.7795 33.0369 36.9083 32.8561 36.9954 32.625C37.0844 32.3939 37.1289 32.125 37.1289 31.8182C37.1289 31.5152 37.0853 31.25 36.9982 31.0227C36.9111 30.7955 36.7833 30.6184 36.6147 30.4915C36.4461 30.3646 36.2378 30.3011 35.9897 30.3011C35.734 30.3011 35.521 30.3674 35.3505 30.5C35.18 30.6326 35.0513 30.8134 34.9641 31.0426C34.8789 31.2718 34.8363 31.5303 34.8363 31.8182C34.8363 32.1098 34.8799 32.3722 34.967 32.6051C35.0541 32.8381 35.1829 33.0227 35.3533 33.1591C35.5257 33.2936 35.7378 33.3608 35.9897 33.3608ZM16.0923 44V38.1818H16.9702V43.2443H19.6065V44H16.0923ZM22.3778 44.0881C21.9688 44.0881 21.6117 43.9943 21.3068 43.8068C21.0019 43.6193 20.7652 43.357 20.5966 43.0199C20.428 42.6828 20.3438 42.2888 20.3438 41.8381C20.3438 41.3854 20.428 40.9896 20.5966 40.6506C20.7652 40.3116 21.0019 40.0483 21.3068 39.8608C21.6117 39.6733 21.9688 39.5795 22.3778 39.5795C22.7869 39.5795 23.1439 39.6733 23.4489 39.8608C23.7538 40.0483 23.9905 40.3116 24.1591 40.6506C24.3277 40.9896 24.4119 41.3854 24.4119 41.8381C24.4119 42.2888 24.3277 42.6828 24.1591 43.0199C23.9905 43.357 23.7538 43.6193 23.4489 43.8068C23.1439 43.9943 22.7869 44.0881 22.3778 44.0881ZM22.3807 43.375C22.6458 43.375 22.8655 43.3049 23.0398 43.1648C23.214 43.0246 23.3428 42.8381 23.4261 42.6051C23.5114 42.3722 23.554 42.1155 23.554 41.8352C23.554 41.5568 23.5114 41.3011 23.4261 41.0682C23.3428 40.8333 23.214 40.6449 23.0398 40.5028C22.8655 40.3608 22.6458 40.2898 22.3807 40.2898C22.1136 40.2898 21.892 40.3608 21.7159 40.5028C21.5417 40.6449 21.4119 40.8333 21.3267 41.0682C21.2434 41.3011 21.2017 41.5568 21.2017 41.8352C21.2017 42.1155 21.2434 42.3722 21.3267 42.6051C21.4119 42.8381 21.5417 43.0246 21.7159 43.1648C21.892 43.3049 22.1136 43.375 22.3807 43.375ZM27.1896 45.7273C26.843 45.7273 26.5447 45.6818 26.2947 45.5909C26.0466 45.5 25.844 45.3797 25.6868 45.2301C25.5296 45.0805 25.4122 44.9167 25.3345 44.7386L26.0646 44.4375C26.1158 44.5208 26.1839 44.6089 26.2692 44.7017C26.3563 44.7964 26.4737 44.8769 26.6214 44.9432C26.7711 45.0095 26.9633 45.0426 27.1982 45.0426C27.5201 45.0426 27.7862 44.964 27.9964 44.8068C28.2067 44.6515 28.3118 44.4034 28.3118 44.0625V43.2045H28.2578C28.2067 43.2973 28.1328 43.4006 28.0362 43.5142C27.9415 43.6278 27.8108 43.7263 27.6442 43.8097C27.4775 43.893 27.2607 43.9347 26.9936 43.9347C26.6489 43.9347 26.3383 43.8542 26.0618 43.6932C25.7872 43.5303 25.5694 43.2907 25.4084 42.9744C25.2493 42.6562 25.1697 42.2652 25.1697 41.8011C25.1697 41.3371 25.2483 40.9394 25.4055 40.608C25.5646 40.2765 25.7824 40.0227 26.0589 39.8466C26.3355 39.6686 26.6489 39.5795 26.9993 39.5795C27.2701 39.5795 27.4889 39.625 27.6555 39.7159C27.8222 39.8049 27.9519 39.9091 28.0447 40.0284C28.1394 40.1477 28.2124 40.2528 28.2635 40.3438H28.326V39.6364H29.1584V44.0966C29.1584 44.4716 29.0713 44.7794 28.897 45.0199C28.7228 45.2604 28.487 45.4384 28.1896 45.554C27.8942 45.6695 27.5608 45.7273 27.1896 45.7273ZM27.1811 43.2301C27.4254 43.2301 27.6319 43.1733 27.8004 43.0597C27.9709 42.9441 28.0997 42.7794 28.1868 42.5653C28.2758 42.3494 28.3203 42.0909 28.3203 41.7898C28.3203 41.4962 28.2768 41.2377 28.1896 41.0142C28.1025 40.7907 27.9747 40.6165 27.8061 40.4915C27.6375 40.3646 27.4292 40.3011 27.1811 40.3011C26.9254 40.3011 26.7124 40.3674 26.5419 40.5C26.3714 40.6307 26.2427 40.8087 26.1555 41.0341C26.0703 41.2595 26.0277 41.5114 26.0277 41.7898C26.0277 42.0758 26.0713 42.3267 26.1584 42.5426C26.2455 42.7585 26.3743 42.9271 26.5447 43.0483C26.7171 43.1695 26.9292 43.2301 27.1811 43.2301ZM32.1357 44.0881C31.7266 44.0881 31.3696 43.9943 31.0646 43.8068C30.7597 43.6193 30.523 43.357 30.3544 43.0199C30.1858 42.6828 30.1016 42.2888 30.1016 41.8381C30.1016 41.3854 30.1858 40.9896 30.3544 40.6506C30.523 40.3116 30.7597 40.0483 31.0646 39.8608C31.3696 39.6733 31.7266 39.5795 32.1357 39.5795C32.5447 39.5795 32.9018 39.6733 33.2067 39.8608C33.5116 40.0483 33.7483 40.3116 33.9169 40.6506C34.0855 40.9896 34.1697 41.3854 34.1697 41.8381C34.1697 42.2888 34.0855 42.6828 33.9169 43.0199C33.7483 43.357 33.5116 43.6193 33.2067 43.8068C32.9018 43.9943 32.5447 44.0881 32.1357 44.0881ZM32.1385 43.375C32.4036 43.375 32.6233 43.3049 32.7976 43.1648C32.9718 43.0246 33.1006 42.8381 33.1839 42.6051C33.2692 42.3722 33.3118 42.1155 33.3118 41.8352C33.3118 41.5568 33.2692 41.3011 33.1839 41.0682C33.1006 40.8333 32.9718 40.6449 32.7976 40.5028C32.6233 40.3608 32.4036 40.2898 32.1385 40.2898C31.8714 40.2898 31.6499 40.3608 31.4737 40.5028C31.2995 40.6449 31.1697 40.8333 31.0845 41.0682C31.0012 41.3011 30.9595 41.5568 30.9595 41.8352C30.9595 42.1155 31.0012 42.3722 31.0845 42.6051C31.1697 42.8381 31.2995 43.0246 31.4737 43.1648C31.6499 43.3049 31.8714 43.375 32.1385 43.375Z" fill="#484848"/>
<circle cx="25" cy="25" r="24.5" stroke="#484848"/>
<path d="M31 18V21H19V18H17V21C17 22.1 17.9 23 19 23H31C32.1 23 33 22.1 33 21V18H31ZM20 12L21.41 13.41L24 10.83V19H26V10.83L28.59 13.41L30 12L25 7L20 12Z" fill="#484848"/>
</svg>
